<?xml version="1.0" encoding="utf-8"?>
<!-- Generator: Adobe Illustrator 23.0.1, SVG Export Plug-In . SVG Version: 6.00 Build 0)  -->
<svg version="1.1" id="Layer_1" xmlns="http://www.w3.org/2000/svg" xmlns:xlink="http://www.w3.org/1999/xlink" x="0px" y="0px"
	 viewBox="0 0 1920 1080" style="enable-background:new 0 0 1920 1080;" xml:space="preserve">
<style type="text/css">
	.st0{display:none;opacity:0.63;fill:#24C7E2;}
	.st1{display:none;opacity:0.88;fill:#24AECE;}
	.st2{clip-path:url(#SVGID_2_);fill:#2BBBE2;}
	.st3{clip-path:url(#SVGID_2_);fill:#B9F3F9;}
	.st4{clip-path:url(#SVGID_2_);fill:#60D4EF;}
	.st5{clip-path:url(#SVGID_2_);fill:#CEAA80;}
	.st6{clip-path:url(#SVGID_2_);fill:#E8C19A;}
	.st7{clip-path:url(#SVGID_2_);fill:#EACEA7;}
	.st8{opacity:0.1;clip-path:url(#SVGID_2_);}
	.st9{clip-path:url(#SVGID_2_);fill:#FFFFFF;}
	.st10{clip-path:url(#SVGID_2_);fill:#F4D5B8;}
	.st11{clip-path:url(#SVGID_2_);fill:#E0B18C;}
	.st12{clip-path:url(#SVGID_2_);fill:#EFD2C2;}
	.st13{clip-path:url(#SVGID_2_);fill:#E5B89A;}
	.st14{clip-path:url(#SVGID_2_);fill:none;}
</style>
<path class="st0" d="M2535,335.72c0,0-401-404.34-773,0s-598,217.36-673,184.14C1014,486.64,851,271.63,451,414
	s-588-63.09-588-63.09L-157,8c0,0,180,203.89,580,61.52s560,63.26,635,96.48s322,219.34,694-185s763-8.29,763-8.29"/>
<path class="st1" d="M2836,69.56c0,0-479.94-619.28-925.17,0s-715.72,332.9-805.48,282.02S820.49-28.61,341.75,189.44
	S-362,92.82-362,92.82v-509.9c0,0,215.43,312.28,694.18,94.22s670.24,96.89,760,147.77c89.76,50.88,385.39,335.93,830.62-283.34
	s913.2-12.7,913.2-12.7"/>
<g>
	<defs>
		<rect id="SVGID_1_" x="1" y="1" width="1919" height="1080"/>
	</defs>
	<clipPath id="SVGID_2_">
		<use xlink:href="#SVGID_1_"  style="overflow:visible;"/>
	</clipPath>
	<path class="st2" d="M1919.5,0.5V543c-59.47-15.04-114.44-22.76-157-17.5c-186,23-287,227-603,277s-496-309-780-152
		c-196.96,108.88-321.29,52.31-379,7.41V0.5H1919.5z"/>
	<path class="st3" d="M1919.5,543v48.3c-44.75-9.08-85.68-12.92-119-8.8c-186,23-287,227-603,277s-496-309-780-152s-417-30-417-30
		v-19.59c57.71,44.9,182.04,101.47,379-7.41c284-157,464,202,780,152s417-254,603-277C1805.06,520.24,1860.03,527.96,1919.5,543z"/>
	<path class="st4" d="M1920,520v48.3c-44.75-9.08-85.68-12.92-119-8.8c-186,23-287,227-603,277s-496-309-780-152s-417-30-417-30
		v-19.59c57.71,44.9,182.04,101.47,379-7.41c284-157,464,202,780,152s417-254,603-277C1805.56,497.24,1860.53,504.96,1920,520z"/>
	<path class="st5" d="M1919.5,591.3v489.2H0.5v-403c0,0,133,187,417,30s464,202,780,152s417-254,603-277
		C1833.82,578.38,1874.75,582.22,1919.5,591.3z"/>
	<path class="st6" d="M1942.5,602.3v489.2H-14v-403c0,0,135.6,187,425.15,30s473.07,202,795.24,152s425.15-254,614.78-277
		C1855.15,589.38,1896.88,593.22,1942.5,602.3z"/>
	<path class="st7" d="M1977,627.79V1133H-30V716.81c0,0,131.98,211.32,429,49.19s402.64,152.86,737,143
		c373-11,517.47-260.25,712-284C1882.85,620.75,1930.2,618.41,1977,627.79z"/>
	<path class="st8" d="M908.11,659.65c0,0-217.33-89.15-399.82,103.09l49.85,117.5C821.87,860.06,908.11,659.65,908.11,659.65z"/>
	<path class="st9" d="M941,690.07c0,0-222.22-93.73-409.28,81.25L582.52,885C852.4,876.83,941,690.07,941,690.07z"/>
	<path class="st10" d="M639.46,709.53l71,147.3c-34.8,10.4-74.18,17.31-118.48,18.65l-45.72-102.31
		C576.32,745.05,607.89,724.44,639.46,709.53z"/>
	<path class="st10" d="M772.24,832.86L701.89,686.9c44.21-11.57,86.41-13.89,122.24-12.14l44.6,92.53
		C844.51,789.59,812.63,813.31,772.24,832.86z"/>
	<path class="st11" d="M898.76,703.16c0,0-167.98-50.83-300.19,50.96c-13.35,10.28-18.16,26.21-12.08,39.83l16.71,37.4
		c6.45,14.44,23.63,22.84,42.12,20.75C817.76,832.58,898.76,703.16,898.76,703.16z"/>
	<polygon class="st9" points="798.22,674.27 850.62,782.98 838.5,792.46 781.78,674.77 	"/>
	<path class="st12" d="M868.73,767.3l-44.6-92.53c9.01,0.44,17.62,1.14,25.77,2.02c0.36,0.03,0.72,0.07,1.09,0.11
		c1.68,0.18,3.33,0.37,4.96,0.57c10.37,1.26,19.89,2.78,28.41,4.37c0.38,0.06,0.76,0.14,1.14,0.22
		c27.92,5.3,44.73,11.37,44.73,11.37s-7.38,13.52-23.25,33.19c-0.21,0.26-0.43,0.53-0.65,0.79c-4.96,6.11-10.72,12.79-17.34,19.84
		c-0.89,0.95-1.79,1.9-2.71,2.86l-0.69,0.71C880.44,756.17,874.83,761.69,868.73,767.3z"/>
	<path class="st13" d="M885.58,750.83l-35.69-74.04c0.36,0.03,0.72,0.07,1.09,0.11l35.29,73.21L885.58,750.83z"/>
	<path class="st13" d="M906.32,727.41l-21.96-45.57c0.38,0.06,0.76,0.14,1.14,0.22l21.48,44.56
		C906.75,726.88,906.54,727.15,906.32,727.41z"/>
	<path class="st12" d="M744.97,844.85l-71.88-149.12c9.66-3.41,19.28-6.34,28.8-8.82l70.35,145.96
		C763.55,837.07,754.46,841.09,744.97,844.85z"/>
	<path class="st12" d="M743.24,845.54c-10.44,4.09-21.36,7.88-32.78,11.29l-71-147.3c10.64-5.02,21.28-9.39,31.87-13.18
		L743.24,845.54z"/>
	<path class="st13" d="M743.24,845.54l-71.91-149.2c0.59-0.21,1.18-0.42,1.77-0.62l71.88,149.12
		C744.4,845.09,743.82,845.32,743.24,845.54z"/>
	<path class="st14" d="M673.09,695.73c-0.58,0.2-1.17,0.42-1.77,0.62"/>
	<path class="st14" d="M743.24,845.54c0.58-0.23,1.16-0.46,1.73-0.69"/>
</g>
</svg>
